# xmcd CD database file
#
# Track frame offsets:
#	150
#	16879
#	38690
#	53580
#	74079
#	105769
#	138511
#	159765
#	177700
#	192510
#	207407
#	228480
#	245993
#	260054
#	284628
#
# Disc length: 3994 seconds
#
# Revision: 0
# Processed by: cddbd v1.5.2PL0 Copyright (c) Steve Scherf et al.
# Submitted via: CDex 1.70beta2
#
DISCID=e20f980f
DTITLE=Juhász Attila - Bársony Bálint - Sunshine Jazz
DYEAR=2009
DGENRE=Jazz
TTITLE0=Katica
TTITLE1=Csak a tej
TTITLE2=Szevasz
TTITLE3=Sunshine Tenor
TTITLE4=A Teknős meg a Nyúl
TTITLE5=Szép, szép
TTITLE6=Respect for Basie
TTITLE7=A Csiga és a Zsiráf
TTITLE8=Sir Jones
TTITLE9=Jazzy Jack
TTITLE10=Kihangolva
TTITLE11=Sunshine Ballada
TTITLE12=Amsterdam
TTITLE13=Vakond
TTITLE14=Csak zene van
EXTD=YEAR: 2009
EXTT0=
EXTT1=
EXTT2=
EXTT3=
EXTT4=
EXTT5=
EXTT6=
EXTT7=
EXTT8=
EXTT9=
EXTT10=
EXTT11=
EXTT12=
EXTT13=
EXTT14=
PLAYORDER=
